<svg width="16" height="16" viewBox="0 0 16 16" fill="none" xmlns="http://www.w3.org/2000/svg">
<path d="M7.99999 16C9.58224 16 11.129 15.5308 12.4446 14.6517C13.7602 13.7727 14.7855 12.5233 15.391 11.0615C15.9965 9.59964 16.155 7.99111 15.8463 6.43926C15.5376 4.88741 14.7757 3.46195 13.6568 2.34313C12.914 1.60027 12.032 1.01099 11.0614 0.608958C10.0908 0.206923 9.05055 -1.55174e-06 7.99997 0C5.87825 3.13391e-06 3.84342 0.84286 2.34313 2.34315C0.842847 3.84344 -3.13389e-06 5.87827 0 8C3.13391e-06 10.1217 0.84286 12.1566 2.34315 13.6568C3.08429 14.402 3.96587 14.9928 4.93687 15.395C5.90787 15.7972 6.94899 16.0028 7.99999 16ZM7.99999 1.0695C11.8215 1.0695 14.9305 4.17849 14.9305 7.99997C14.9305 11.8215 11.8215 14.9305 7.99999 14.9305C4.17851 14.9305 1.06951 11.8215 1.06951 7.99997C1.06951 4.17846 4.17851 1.0695 7.99999 1.0695Z" fill="black"/>
</svg>
