<svg width="40" height="40" viewBox="0 0 40 40" fill="none" xmlns="http://www.w3.org/2000/svg">
<path d="M20.0013 1.66598C15.1904 1.61709 10.5569 3.48032 7.11919 6.84619C3.68145 10.212 1.72074 14.8051 1.66797 19.616C1.68651 23.4179 2.90954 27.1162 5.16141 30.1796C7.41327 33.2429 10.5781 35.5138 14.2013 36.666C15.118 36.8326 15.4513 36.2826 15.4513 35.7993C15.4513 35.316 15.4513 34.2493 15.4513 32.7493C10.3513 33.8326 9.26797 30.3493 9.26797 30.3493C8.92846 29.2558 8.20669 28.3211 7.23464 27.716C5.56797 26.616 7.36797 26.6326 7.36797 26.6326C7.94405 26.7097 8.49523 26.9161 8.98015 27.2365C9.46508 27.5569 9.87117 27.9829 10.168 28.4826C10.6852 29.3795 11.5339 30.0375 12.5313 30.3149C13.5288 30.5923 14.5953 30.467 15.5013 29.966C15.5945 29.0533 16.0078 28.2031 16.668 27.566C12.6013 27.116 8.33464 25.5826 8.33464 18.6993C8.29827 16.9038 8.96171 15.1645 10.1846 13.8493C9.62768 12.3078 9.69345 10.6098 10.368 9.11598C10.368 9.11598 11.918 8.63265 15.368 10.9493C18.3711 10.149 21.5315 10.149 24.5346 10.9493C28.0346 8.63265 29.5346 9.11598 29.5346 9.11598C30.2092 10.6098 30.2749 12.3078 29.718 13.8493C30.9693 15.1404 31.6687 16.868 31.668 18.666C31.668 25.566 27.368 27.0826 23.3346 27.5326C23.7763 27.9614 24.1174 28.4827 24.3336 29.0591C24.5497 29.6354 24.6354 30.2525 24.5846 30.866V35.7826C24.5846 35.7826 24.918 36.8326 25.8346 36.6493C29.4476 35.49 32.6017 33.2186 34.8466 30.1595C37.0915 27.1005 38.3123 23.4103 38.3346 19.616C38.2819 14.8051 36.3212 10.212 32.8834 6.84619C29.4457 3.48032 24.8122 1.61709 20.0013 1.66598Z" fill="#01C4CD"/>
</svg>
